<?xml version="1.0" encoding="utf-8"?>
<!-- Generator: Adobe Illustrator 24.1.0, SVG Export Plug-In . SVG Version: 6.00 Build 0)  -->
<svg version="1.1" id="Layer_1" xmlns="http://www.w3.org/2000/svg" xmlns:xlink="http://www.w3.org/1999/xlink" x="0px" y="0px"
	 viewBox="0 0 1133.9 1133.9" style="enable-background:new 0 0 1133.9 1133.9;" xml:space="preserve">
<style type="text/css">
	.st0{fill:#910A55;}
</style>
<path id="left-bracket" class="st0" d="M152.4,561l189.4,63.5c2,9.2,4.1,19.5,4.1,27.6c0,9.2,0,17.4,0,25.6c0,3.1,0,8.2,0,13.3
	c0,5.1-1,11.3-1,16.4c0,6.1-1,11.3-2,17.4c-1,5.1-2,10.2-2,15.4L37.7,617.4c-5.1-19.5-7.2-38.9-7.2-57.3c0-18.4,2-35.8,7.2-53.2
	l303.1-122.9c2,8.2,3.1,18.4,4.1,30.7c1,12.3,1,21.5,1,28.7c0,8.2,0,16.4,0,24.6c0,8.2-2,17.4-4.1,26.6L152.4,561z"/>
<path id="backslash" class="st0" d="M623,220.8c10.2-2,19.5-3.1,28.7-4.1c9.2-1,18.4-1,28.7-1c8.2,0,17.4,0,27.6,1
	c10.2,1,21.5,2,33.8,5.1L506.3,913c-10.2,2-19.5,3.1-28.7,4.1c-9.2,1-18.4,1-28.7,1c-8.2,0-17.4,0-27.6-1c-10.2-1-21.5-2-33.8-5.1
	L623,220.8z"/>
<path id="right-bracket" class="st0" d="M792,495.3c-2-9.2-4.1-18.4-4.1-26.6c0-8.2,0-16.4,0-24.6c0-7.2,0-16.4,1-28.7
	c1-12.3,2-22.5,4.1-30.7l303.1,122.9c5.1,17.4,7.2,34.8,7.2,53.2c0,18.4-2,37.9-7.2,57.3L793,741c-1-4.1-2-9.2-2-15.4
	c-1-5.1-1-11.3-2-17.4c0-6.1-1-11.3-1-16.4s0-9.2,0-13.3c0-8.2,0-16.4,0-25.6c0-9.2,2-18.4,4.1-27.6l189.4-63.5L792,495.3z"/>
</svg>
