<svg version="1" xmlns="http://www.w3.org/2000/svg" width="933.333" height="933.333" viewBox="0 0 700.000000 700.000000"><path d="M399.5 134c-3.8.5-8.8 1.3-11 1.7l-4 .9-72.6 212.9c-47.5 139.4-72.2 213.2-71.5 213.7 2.1 1.2 17.2 2.9 31.6 3.5 14.1.5 38.3-1.6 40.2-3.5.4-.4 33.3-96.4 73.1-213.2 48.7-142.8 72.1-212.7 71.3-213.1-4.6-2.7-43.6-4.6-57.1-2.9zM199 241.6c-5.8 2.3-32.3 13.1-59 23.9-26.7 10.8-59.1 24-72 29.2-12.9 5.3-28.2 11.5-34 13.8l-10.5 4.2-1.8 6.9c-2.7 10.5-3.3 32.2-1.3 46.2.9 6.2 2 12.2 2.4 13.3.6 1.5 4.4 3.6 13.8 7.4 7.1 2.9 28 11.3 46.4 18.8s54.2 22 79.5 32.2c25.3 10.3 46.4 18.7 46.9 18.8 3.2.6 5.6-53.4 2.8-65.3l-1.2-5.5-58-19.5c-31.8-10.7-57.6-19.8-57.2-20.1.4-.3 26.4-9.6 57.9-20.5l57.2-19.9 1.3-5.5c2.4-10 .8-59.7-2-62.1-.4-.4-5.4 1.3-11.2 3.7zM488.7 241.2c-.4 1.8-1.2 11.7-1.9 22.1-.9 14.4-.9 21.1-.1 29 .7 5.6 1.5 11 1.8 11.9.4 1 12.4 5.7 35.3 13.8 19.1 6.7 45.1 15.8 57.9 20.3 12.8 4.5 23 8.4 22.7 8.7-.3.3-26.2 9.1-57.6 19.6-33.8 11.3-57.4 19.7-57.9 20.6-1.8 3.3-3.1 20.7-2.6 34.8.6 14.1 2.5 34.1 3.3 34.9.2.2 14-5.1 30.6-11.9 58.6-23.8 84.7-34.4 128.4-52.1l28.2-11.4 1.1-5c4-18.1 4.1-38.8.2-57.7l-1.2-5.4-47.7-19.3c-26.2-10.7-60.7-24.7-76.7-31.1-15.9-6.5-36.3-14.7-45.3-18.4-9-3.6-16.7-6.6-17.1-6.6-.5 0-1.1 1.5-1.4 3.2z"/></svg>