<svg version="1.1" id="shecodes-stacked" xmlns="http://www.w3.org/2000/svg" x="0" y="0" viewBox="0 0 338.6 130" xml:space="preserve">
  <path class="left-bracket contrast" d="M19.1 33.4l18.5 6.2c.2.9.4 1.9.4 2.7v3.8c0 .5-.1 1.1-.1 1.6 0 .6-.1 1.1-.2 1.7-.1.5-.2 1-.2 1.5l-29.6-12c-.5-1.9-.7-3.8-.7-5.6 0-1.8.2-3.5.7-5.2l29.6-12c.2.8.3 1.8.4 3 .1 1.2.1 2.1.1 2.8v2.4c0 .8-.2 1.7-.4 2.6l-18.5 6.5z"/>
  <path class="s" d="M43.9 25.7v-1c0-7.1 3.5-10.7 13-10.7 2.3 0 4.7.2 8.1.9l-.2 5.5c-2.7-.6-5.3-.9-7.6-.9-5.4 0-6.8 1.5-6.8 4.5v.6c0 2 .9 3 3.5 4.1l7.2 3c4.5 1.8 6.9 5.2 6.9 9v1.8c0 7.1-3.7 10.8-13.4 10.8-2.9 0-6.1-.4-9.8-1.2l.2-5.8c3.4.8 6.5 1.2 9.6 1.2 5.5 0 6.9-1.3 6.9-4.4V42c0-2.4-.9-3.8-3.3-4.8l-7.4-2.9c-4.5-1.6-6.9-4.8-6.9-8.6z"/>
  <path class="h" d="M71.3 52.4V0h6.5v20c2.7-3.8 6-5.9 9.8-5.9 6.5 0 10.2 4.6 10.2 12.8v25.6h-6.5V27.9c0-5.6-2.1-7.7-5-7.7-3 0-6.3 2.4-8.5 6.3v26l-6.5-.1z"/>
  <path class="e" d="M101.7 27.7c0-8.8 4.2-13.7 13.1-13.7 8.6 0 13.2 4.8 13.2 13.7v7.9h-19.7v4.5c0 5.2 2.4 7.4 7.8 7.4 3.3 0 8.1-.8 10.8-1.4l-.3 5.8c-3.4.6-7.6 1.4-10.5 1.4-10.4 0-14.3-4.5-14.3-13.5V27.7h-.1zm6.6 2.7h13.2v-3.5c0-5.1-2.7-7.5-6.7-7.5-3.9 0-6.5 2.5-6.5 7.3v3.7z"/>
  <path class="c" d="M0 105.2V85.1c0-15.7 7.6-24.7 24.6-24.7 4.7 0 7.3.4 13.3 1.4L37.6 72c-4.8-.8-7.7-1.4-13-1.4-8.6 0-13 4.9-13 13.6v21.9c0 9.2 4.9 13.7 13 13.7 5.3 0 8.3-.5 13-1.4l.3 10.2c-6 .9-8.5 1.4-13.3 1.4C7.8 129.9 0 121.2 0 105.2z"/>
  <path class="o contrast" d="M92 105.2c0 15.3-7.3 24.7-23.9 24.7s-23.9-9.4-23.9-24.7V85.1c0-15.3 7.3-24.7 23.9-24.7S92 69.8 92 85.1v20.1zM80.5 84c0-9.2-4.6-14-12.3-14s-12.3 4.9-12.3 14.1v22c0 9.2 4.6 14.1 12.3 14.1s12.3-4.9 12.3-14.1V84z"/>
  <path class="d" d="M99.6 83.1c0-14.1 6.6-22.7 19.1-22.7 5.8 0 12.2 3.7 16.3 6.8V35.6h11.5v92.7h-11v-10.7c-5.3 8-11.5 12.4-18.6 12.4-11.1 0-17.4-7.7-17.4-22.7V83.1h.1zm35.4 24.3V77.5c-3.8-3.9-9.5-6.8-13.7-6.8-6.2 0-10.2 4.2-10.2 14v21c0 10.3 3.5 13.8 8.6 13.8 5.2.1 10.9-4.2 15.3-12.1z"/>
  <path class="e" d="M153.2 84.7c0-15.6 7.5-24.3 23.1-24.3 15.2 0 23.3 8.5 23.3 24.3v14h-34.9v8c0 9.2 4.2 13 13.7 13 5.8 0 14.4-1.5 19.1-2.4l-.5 10.2c-6 1.1-13.4 2.4-18.6 2.4-18.3 0-25.2-7.9-25.2-23.9V84.7zm11.5 4.8H188v-6.1c0-9-4.7-13.3-11.8-13.3-6.9 0-11.5 4.5-11.5 12.9v6.5z"/>
  <path class="s" d="M204.5 81.1v-1.8c0-12.5 6.2-18.9 22.9-18.9 4.1 0 8.3.4 14.2 1.6l-.3 9.8c-4.7-1.1-9.4-1.6-13.4-1.6-9.5 0-12.1 2.6-12.1 8v1.1c0 3.5 1.6 5.3 6.2 7.2l12.8 5.3c7.9 3.3 12.2 9.2 12.2 15.9v3.3c0 12.5-6.5 19-23.6 19-5.2 0-10.7-.7-17.2-2.2l.3-10.2c6 1.5 11.5 2.2 17 2.2 9.8 0 12.2-2.3 12.2-7.7v-1.9c0-4.2-1.6-6.8-5.8-8.4l-13.2-5.2c-8-3.1-12.2-8.8-12.2-15.5z"/>
  <path class="backslash contrast" d="M288.8 61.7c1-.2 1.9-.3 2.8-.4s1.8-.1 2.8-.1c.8 0 1.7 0 2.7.1s2.1.2 3.3.5l-23 67.5c-1 .2-1.9.3-2.8.4-.9.1-1.8.1-2.8.1-.8 0-1.7 0-2.7-.1s-2.1-.2-3.3-.5l23-67.5z"/>
  <path class="right-bracket contrast" d="M308.2 88.5c-.2-.9-.4-1.8-.4-2.6v-2.4c0-.7 0-1.6.1-2.8.1-1.2.2-2.2.4-3l29.6 12c.5 1.7.7 3.4.7 5.2 0 1.8-.2 3.7-.7 5.6l-29.6 12c-.1-.4-.2-.9-.2-1.5-.1-.5-.1-1.1-.2-1.7 0-.6-.1-1.1-.1-1.6v-1.3-2.5c0-.9.2-1.8.4-2.7l18.5-6.2-18.5-6.5z"/>
</svg>
